<svg viewBox="0 0 743 308" id="svg9209579810" xmlns="http://www.w3.org/2000/svg">
  <path d="M -57.609 220.769 L 26.92 220.769 L 50.072 201.385 L 63.532 201.385 L 80.222 187.923 L 106.066 187.923 L 120.603 173.923 L 135.14 173.923 L 150.215 190.615 L 180.366 190.615 L 211.055 165.846 L 229.899 165.846 L 248.743 154 L 279.433 154 L 366.116 83.462 L 552.404 83.462 L 596.554 42 L 615.936 42 L 635.857 22.077 L 648.779 22.077 L 660.624 28.538 L 677.853 28.538 L 697.774 8.615 L 773.689 8.615"
    fill="transparent" stroke-width="4.31" stroke="rgb(255, 215, 0)" />
  <defs>
    <linearGradient id="idss9209579810_2g-1970046004" x1="0.4975" x2="0.5024" y1="0" y2="1">
      <stop offset="0" stop-color="rgb(40, 100, 209)" stop-opacity="1" />
      <stop offset="1" stop-color="rgba(23, 23, 23, 0.7)" stop-opacity="1" />
    </linearGradient>
  </defs>
  <path d="M 773.689 308 L -57.609 308 L -57.609 220.769 L 26.92 220.769 L 50.072 201.385 L 63.532 201.385 L 80.222 187.923 L 106.066 187.923 L 120.603 173.923 L 135.14 173.923 L 150.215 190.615 L 180.366 190.615 L 211.055 165.846 L 229.899 165.846 L 248.743 154 L 279.433 154 L 366.116 83.462 L 552.404 83.462 L 596.554 42 L 615.936 42 L 635.857 22.077 L 648.779 22.077 L 660.624 28.538 L 677.853 28.538 L 697.774 8.615 L 773.689 8.615 Z"
    fill="url(#idss9209579810_2g-1970046004)" />
</svg>
